<svg width="36" height="36" viewBox="0 0 36 36" fill="none" xmlns="http://www.w3.org/2000/svg">
<path d="M6 17.9711L7.5 17.9711L7.5 27.5768C7.5 27.8077 7.59612 28.0194 7.78837 28.2116C7.98062 28.4039 8.19225 28.5 8.42325 28.5L27.5767 28.5C27.8077 28.5 28.0194 28.4039 28.2116 28.2116C28.4039 28.0194 28.5 27.8078 28.5 27.5768L28.5 17.9711L30 17.9711L30 27.5768C30 28.2673 29.7687 28.8437 29.3062 29.3063C28.8437 29.7688 28.2672 30 27.5767 30L8.42325 30C7.73275 30 7.15625 29.7688 6.69375 29.3063C6.23125 28.8437 6 28.2673 6 27.5768L6 17.9711ZM12.6922 16.9039L13.7711 15.8509L17.25 19.3298L17.25 6L18.75 6L18.75 19.3298L22.2289 15.8509L23.3077 16.9039L18 22.2116L12.6922 16.9039Z" fill="white"/>
</svg>
