<svg width="40" height="40" viewBox="0 0 40 40" fill="none" xmlns="http://www.w3.org/2000/svg">
<path d="M11.0258 35C10.2586 35 9.61807 34.7431 9.10418 34.2292C8.59029 33.7153 8.33334 33.0747 8.33334 32.3075V7.6925C8.33334 6.92528 8.59029 6.28472 9.10418 5.77083C9.61807 5.25694 10.2586 5 11.0258 5H24.5513L31.6667 12.1154V32.3075C31.6667 33.0747 31.4097 33.7153 30.8958 34.2292C30.382 34.7431 29.7414 35 28.9742 35H11.0258ZM11.0258 33.3333H28.9742C29.2308 33.3333 29.466 33.2265 29.6796 33.0129C29.8932 32.7993 30 32.5642 30 32.3075V12.9488H23.7179V6.66667H11.0258C10.7692 6.66667 10.534 6.77347 10.3204 6.98708C10.1068 7.20069 10 7.43583 10 7.6925V32.3075C10 32.5642 10.1068 32.7993 10.3204 33.0129C10.534 33.2265 10.7692 33.3333 11.0258 33.3333ZM20 30.3525C21.5192 30.3525 22.7964 29.7958 23.8317 28.6825C24.867 27.5694 25.3846 26.2351 25.3846 24.6796V17.0512H23.7179V24.6796C23.7179 25.7671 23.3611 26.7067 22.6475 27.4983C21.9339 28.29 21.0514 28.6858 20 28.6858C18.955 28.6858 18.0742 28.29 17.3575 27.4983C16.6406 26.7067 16.2821 25.7671 16.2821 24.6796V15.5771C16.2821 15.1346 16.4189 14.7515 16.6925 14.4279C16.9658 14.1043 17.3097 13.9425 17.7242 13.9425C18.1453 13.9425 18.491 14.1043 18.7613 14.4279C19.0315 14.7515 19.1667 15.1346 19.1667 15.5771V24.6796H20.8333V15.5771C20.8333 14.6882 20.5374 13.9157 19.9454 13.2596C19.3535 12.6037 18.6131 12.2758 17.7242 12.2758C16.8353 12.2758 16.095 12.6037 15.5033 13.2596C14.9114 13.9157 14.6154 14.6882 14.6154 15.5771V24.6796C14.6154 26.2351 15.1346 27.5694 16.1729 28.6825C17.2115 29.7958 18.4872 30.3525 20 30.3525Z" fill="#D38304"/>
</svg>
