<svg width="44" height="44" viewBox="0 0 44 44" fill="none" xmlns="http://www.w3.org/2000/svg">
<path d="M20.6603 34.8333H23.3397V31.0185L29.3333 25.0249V17.6283C29.3333 17.346 29.2158 17.0873 28.9809 16.8524C28.7459 16.6174 28.4872 16.4999 28.2049 16.4999H15.7951C15.5127 16.4999 15.2541 16.6174 15.0191 16.8524C14.7841 17.0873 14.6667 17.346 14.6667 17.6283V25.0249L20.6603 31.0185V34.8333ZM18.827 36.6666V31.8014L12.8333 25.8078V17.6283C12.8333 16.8079 13.1218 16.1091 13.6987 15.5319C14.2759 14.955 14.9747 14.6666 15.7951 14.6666H18.0515L17.1348 15.5833V7.33325H18.9681V14.6666H25.0319V7.33325H26.8652V15.5833L25.9485 14.6666H28.2049C29.0253 14.6666 29.7241 14.955 30.3013 15.5319C30.8782 16.1091 31.1667 16.8079 31.1667 17.6283V25.8078L25.173 31.8014V36.6666H18.827Z" fill="white"/>
</svg>
