<svg width="40" height="40" viewBox="0 0 40 40" fill="none" xmlns="http://www.w3.org/2000/svg">
<g clip-path="url(#clip0_40_120)">
<path d="M40 20C40 8.95407 31.0459 0 20 0C8.95407 0 0 8.95407 0 20C0 29.9822 7.31259 38.2578 16.8741 39.757V25.7807H11.7956V20H16.8741V15.5941C16.8741 10.5807 19.8607 7.81333 24.4296 7.81333C26.6193 7.81333 28.9067 8.20444 28.9067 8.20444V13.1259H26.3852C23.8993 13.1259 23.1259 14.6667 23.1259 16.2489V20H28.6726L27.7867 25.7807H23.1259V39.757C32.6874 38.2578 40 29.9822 40 20Z" fill="white"/>
</g>
<defs>
<clipPath id="clip0_40_120">
<rect width="40" height="40" fill="white"/>
</clipPath>
</defs>
</svg>
