<svg width="40" height="40" viewBox="0 0 40 40" fill="none" xmlns="http://www.w3.org/2000/svg">
<g clip-path="url(#clip0_40_123)">
<path d="M20 40C31.0457 40 40 31.0457 40 20C40 8.9543 31.0457 0 20 0C8.9543 0 0 8.9543 0 20C0 31.0457 8.9543 40 20 40Z" fill="white"/>
<path d="M19.9999 9.67686C23.3629 9.67686 23.7599 9.68871 25.0873 9.75093C26.314 9.80723 26.9807 10.0117 27.4251 10.1835C28.0118 10.4117 28.4325 10.6843 28.874 11.1257C29.3155 11.5672 29.5881 11.985 29.8162 12.5746C29.9881 13.0191 30.1925 13.6857 30.2488 14.9124C30.3081 16.2398 30.3229 16.6398 30.3229 19.9998C30.3229 23.3598 30.3111 23.7598 30.2488 25.0872C30.1925 26.3139 29.9881 26.9806 29.8162 27.425C29.5881 28.0117 29.3155 28.4324 28.874 28.8739C28.4325 29.3154 28.0148 29.588 27.4251 29.8161C26.9807 29.988 26.314 30.1924 25.0873 30.2487C23.7599 30.308 23.3629 30.3228 19.9999 30.3228C16.637 30.3228 16.2399 30.3109 14.9125 30.2487C13.6859 30.1924 13.0192 29.988 12.5748 29.8161C11.9881 29.588 11.5673 29.3154 11.1259 28.8739C10.6844 28.4324 10.4118 28.0146 10.1836 27.425C10.0118 26.9806 9.80735 26.3139 9.75105 25.0872C9.69179 23.7598 9.67698 23.3598 9.67698 19.9998C9.67698 16.6398 9.68883 16.2398 9.75105 14.9124C9.80735 13.6857 10.0118 13.0191 10.1836 12.5746C10.4118 11.988 10.6844 11.5672 11.1259 11.1257C11.5673 10.6843 11.9851 10.4117 12.5748 10.1835C13.0192 10.0117 13.6859 9.80723 14.9125 9.75093C16.2399 9.68871 16.637 9.67686 19.9999 9.67686ZM19.9999 7.40723C16.5807 7.40723 16.1511 7.42204 14.8088 7.48426C13.4696 7.54649 12.554 7.75686 11.7511 8.07093C10.9244 8.39389 10.2222 8.82352 9.51994 9.52278C8.82068 10.222 8.38809 10.9243 8.06809 11.7539C7.75698 12.5539 7.54364 13.4694 7.48142 14.8117C7.42216 16.1509 7.40735 16.5806 7.40735 19.9998C7.40735 23.4191 7.42216 23.8487 7.48439 25.1909C7.54661 26.5302 7.75698 27.4457 8.07105 28.2487C8.39402 29.0754 8.82364 29.7776 9.5229 30.4798C10.2222 31.1791 10.9244 31.6117 11.754 31.9317C12.554 32.2428 13.4696 32.4561 14.8118 32.5183C16.154 32.5806 16.5836 32.5954 20.0029 32.5954C23.4222 32.5954 23.8518 32.5806 25.194 32.5183C26.5333 32.4561 27.4488 32.2457 28.2518 31.9317C29.0785 31.6087 29.7807 31.1791 30.4829 30.4798C31.1822 29.7806 31.6148 29.0783 31.9348 28.2487C32.2459 27.4487 32.4592 26.5332 32.5214 25.1909C32.5836 23.8487 32.5985 23.4191 32.5985 19.9998C32.5985 16.5806 32.5836 16.1509 32.5214 14.8087C32.4592 13.4694 32.2488 12.5539 31.9348 11.7509C31.6118 10.9243 31.1822 10.222 30.4829 9.51982C29.7836 8.82056 29.0814 8.38797 28.2518 8.06797C27.4518 7.75686 26.5362 7.54352 25.194 7.4813C23.8488 7.42204 23.4192 7.40723 19.9999 7.40723Z" fill="black"/>
<path d="M20 13.5347C16.4296 13.5347 13.5348 16.4295 13.5348 19.9999C13.5348 23.5702 16.4296 26.465 20 26.465C23.5703 26.465 26.4652 23.5702 26.4652 19.9999C26.4652 16.4295 23.5703 13.5347 20 13.5347ZM20 24.1984C17.6829 24.1984 15.8015 22.3199 15.8015 19.9999C15.8015 17.6799 17.68 15.8013 20 15.8013C22.32 15.8013 24.1985 17.6799 24.1985 19.9999C24.1985 22.3199 22.317 24.1984 20 24.1984Z" fill="black"/>
<path d="M26.7229 14.7878C27.5575 14.7878 28.234 14.1113 28.234 13.2767C28.234 12.4422 27.5575 11.7656 26.7229 11.7656C25.8883 11.7656 25.2118 12.4422 25.2118 13.2767C25.2118 14.1113 25.8883 14.7878 26.7229 14.7878Z" fill="black"/>
</g>
<defs>
<clipPath id="clip0_40_123">
<rect width="40" height="40" fill="white"/>
</clipPath>
</defs>
</svg>
