<svg width="50" height="50" viewBox="0 0 50 50" fill="none" xmlns="http://www.w3.org/2000/svg">
<path d="M25.0073 24.4391C25.9347 24.4391 26.7262 24.1089 27.3818 23.4484C28.0377 22.788 28.3656 21.9941 28.3656 21.0667C28.3656 20.1392 28.0352 19.3476 27.3745 18.6917C26.7141 18.0361 25.9201 17.7083 24.9927 17.7083C24.0653 17.7083 23.2738 18.0385 22.6182 18.699C21.9623 19.3594 21.6344 20.1533 21.6344 21.0807C21.6344 22.0082 21.9648 22.7998 22.6255 23.4557C23.2859 24.1113 24.0799 24.4391 25.0073 24.4391ZM25 40.9938C28.9156 37.5854 32.0113 34.1191 34.287 30.5948C36.5627 27.0705 37.7005 24.0224 37.7005 21.4505C37.7005 17.6391 36.4939 14.4932 34.0807 12.013C31.6675 9.53316 28.6406 8.29323 25 8.29323C21.3594 8.29323 18.3325 9.53316 15.9193 12.013C13.5061 14.4932 12.2995 17.6391 12.2995 21.4505C12.2995 24.0224 13.4373 27.0705 15.713 30.5948C17.9887 34.1191 21.0844 37.5854 25 40.9938ZM25 43.7901C20.1042 39.4606 16.4163 35.4227 13.9365 31.6766C11.4563 27.9307 10.2161 24.522 10.2161 21.4505C10.2161 17.0432 11.6512 13.408 14.5214 10.5448C17.3911 7.6816 20.884 6.25 25 6.25C29.116 6.25 32.6089 7.6816 35.4786 10.5448C38.3488 13.408 39.7839 17.0432 39.7839 21.4505C39.7839 24.522 38.5438 27.9307 36.0635 31.6766C33.5837 35.4227 29.8958 39.4606 25 43.7901Z" fill="#FFAA22"/>
</svg>
