<svg width="44" height="44" viewBox="0 0 44 44" fill="none" xmlns="http://www.w3.org/2000/svg">
<path d="M8.73311 35.6794V32.7181H14.2753L9.5297 17.198C8.72822 16.8103 8.08961 16.2555 7.61386 15.5338C7.13781 14.8124 6.89978 13.9828 6.89978 13.045C6.89978 11.7758 7.34635 10.6946 8.23949 9.80142C9.13263 8.90829 10.2138 8.46172 11.4831 8.46172C12.6042 8.46172 13.5661 8.80547 14.3688 9.49297C15.1715 10.1805 15.7091 11.0589 15.9817 12.1284H22.6944V9.37838C22.6944 9.11744 22.7819 8.89942 22.957 8.72434C23.1324 8.54926 23.3504 8.46172 23.6111 8.46172C23.8158 8.46172 23.995 8.52283 24.1487 8.64505C24.3027 8.76727 24.4009 8.92708 24.4434 9.12447V9.61809L27.7714 6.54359C28.0228 6.29212 28.3044 6.13995 28.6161 6.08709C28.9274 6.03423 29.2312 6.0877 29.5272 6.24751L36.4659 9.47693C36.6914 9.58968 36.8612 9.75131 36.9752 9.96184C37.0891 10.1721 37.0933 10.3864 36.9875 10.6049C36.8748 10.8307 36.7131 10.9735 36.5026 11.0334C36.2924 11.0933 36.0779 11.0704 35.8591 10.9647L28.9067 7.72838L24.5277 11.7617V14.3284L28.9067 18.2701L35.8591 15.0333C36.0779 14.9276 36.2942 14.9065 36.5081 14.97C36.722 15.0333 36.8818 15.1743 36.9875 15.3931C37.1003 15.6186 37.098 15.8348 36.9807 16.0416C36.863 16.2485 36.6914 16.4083 36.4659 16.5211L29.5272 19.7716C29.2312 19.9317 28.9274 19.9793 28.6161 19.9146C28.3044 19.8498 28.0228 19.7034 27.7714 19.4755L24.4434 16.4715V16.9652C24.4009 17.1485 24.3027 17.3048 24.1487 17.4341C23.995 17.5636 23.8158 17.6284 23.6111 17.6284C23.3504 17.6284 23.1324 17.5407 22.957 17.3653C22.7819 17.1902 22.6944 16.9724 22.6944 16.7117V13.9617H15.9817C15.89 14.3706 15.7378 14.7759 15.5252 15.1777C15.3125 15.5798 15.0792 15.9148 14.8253 16.1828L23.7101 32.7181H30.7331V35.6794H8.73311ZM11.4831 15.795C12.2375 15.795 12.8844 15.5252 13.4237 14.9856C13.9633 14.4463 14.2331 13.7995 14.2331 13.045C14.2331 12.2903 13.9633 11.6433 13.4237 11.104C12.8844 10.5647 12.2375 10.2951 11.4831 10.2951C10.7287 10.2951 10.0817 10.5647 9.54207 11.104C9.00277 11.6433 8.73311 12.2903 8.73311 13.045C8.73311 13.7995 9.00277 14.4463 9.54207 14.9856C10.0817 15.5252 10.7287 15.795 11.4831 15.795ZM16.2003 32.7181H21.6086L13.3022 17.2755C13.1143 17.3931 12.8488 17.493 12.5057 17.5752C12.1625 17.6574 11.8498 17.6751 11.5674 17.6284L16.2003 32.7181Z" fill="white"/>
</svg>
