<svg width="50" height="50" viewBox="0 0 50 50" fill="none" xmlns="http://www.w3.org/2000/svg">
<path d="M15.8656 45.8332C14.9066 45.8332 14.1059 45.512 13.4635 44.8696C12.8212 44.2273 12.5 43.4266 12.5 42.4675V7.53213C12.5 6.5731 12.8212 5.77241 13.4635 5.13005C14.1059 4.48768 14.9066 4.1665 15.8656 4.1665H34.1344C35.0934 4.1665 35.8941 4.48768 36.5365 5.13005C37.1788 5.77241 37.5 6.5731 37.5 7.53213V42.4675C37.5 43.4266 37.1788 44.2273 36.5365 44.8696C35.8941 45.512 35.0934 45.8332 34.1344 45.8332H15.8656ZM14.5833 40.6248V42.4675C14.5833 42.7884 14.7168 43.0823 14.9839 43.3493C15.2509 43.6163 15.5448 43.7498 15.8656 43.7498H34.1344C34.4552 43.7498 34.7491 43.6163 35.0161 43.3493C35.2832 43.0823 35.4167 42.7884 35.4167 42.4675V40.6248H14.5833ZM14.5833 38.5415H35.4167V11.4582H14.5833V38.5415ZM14.5833 9.37484H35.4167V7.53213C35.4167 7.2113 35.2832 6.91737 35.0161 6.65036C34.7491 6.38334 34.4552 6.24984 34.1344 6.24984H15.8656C15.5448 6.24984 15.2509 6.38334 14.9839 6.65036C14.7168 6.91737 14.5833 7.2113 14.5833 7.53213V9.37484Z" fill="#FFAA22"/>
</svg>
