<svg width="40" height="40" viewBox="0 0 40 40" fill="none" xmlns="http://www.w3.org/2000/svg">
<g clip-path="url(#clip0_40_130)">
<path d="M20 40C31.0457 40 40 31.0457 40 20C40 8.9543 31.0457 0 20 0C8.9543 0 0 8.9543 0 20C0 31.0457 8.9543 40 20 40Z" fill="white"/>
<path d="M32.7763 13.5821C32.4681 12.4354 31.5674 11.5317 30.4177 11.2235C28.3377 10.6665 20 10.6665 20 10.6665C20 10.6665 11.6622 10.6665 9.58218 11.2235C8.43551 11.5317 7.53181 12.4324 7.22366 13.5821C6.66663 15.6621 6.66663 19.9998 6.66663 19.9998C6.66663 19.9998 6.66663 24.3376 7.22366 26.4176C7.52885 27.5643 8.43255 28.468 9.58218 28.7761C11.6622 29.3332 20 29.3332 20 29.3332C20 29.3332 28.3377 29.3332 30.4177 28.7761C31.5644 28.468 32.4681 27.5672 32.7763 26.4176C33.3333 24.3376 33.3333 19.9998 33.3333 19.9998C33.3333 19.9998 33.3333 15.6621 32.7763 13.5821ZM17.3333 23.9998V15.9998L24.2607 19.9998L17.3333 23.9998Z" fill="black"/>
</g>
<defs>
<clipPath id="clip0_40_130">
<rect width="40" height="40" fill="white"/>
</clipPath>
</defs>
</svg>
