<svg width="44" height="44" viewBox="0 0 44 44" fill="none" xmlns="http://www.w3.org/2000/svg">
<path d="M10.0412 30.2922C8.34656 28.5765 7.09547 26.6973 6.28788 24.6547C5.4806 22.6123 5.07697 20.5052 5.07697 18.3333C5.07697 16.1615 5.4806 14.0543 6.28788 12.012C7.09547 9.96937 8.34656 8.09021 10.0412 6.37451L11.2539 7.58726C9.7402 9.12451 8.61667 10.8185 7.88334 12.6693C7.15001 14.5203 6.78334 16.4083 6.78334 18.3333C6.78334 20.2583 7.15001 22.1464 7.88334 23.9974C8.61667 25.8482 9.7402 27.5422 11.2539 29.0794L10.0412 30.2922ZM14.3 26.0333C13.2495 24.9358 12.458 23.7206 11.9254 22.3878C11.3931 21.0552 11.127 19.7038 11.127 18.3333C11.127 16.9629 11.3931 15.6115 11.9254 14.2789C12.458 12.9461 13.2495 11.7309 14.3 10.6333L15.5128 11.8461C14.6196 12.7182 13.9498 13.7253 13.5034 14.8674C13.0567 16.0099 12.8333 17.1652 12.8333 18.3333C12.8333 19.4804 13.0507 20.6192 13.4856 21.7498C13.9204 22.8803 14.5961 23.9039 15.5128 24.8206L14.3 26.0333ZM14.8078 37.3015L20.1493 21.2772C19.6133 20.9671 19.2002 20.5393 18.9099 19.9939C18.6196 19.4485 18.4745 18.895 18.4745 18.3333C18.4745 17.3556 18.8176 16.5235 19.5039 15.8373C20.1902 15.151 21.0222 14.8078 22 14.8078C22.9778 14.8078 23.8098 15.151 24.4961 15.8373C25.1824 16.5235 25.5255 17.3556 25.5255 18.3333C25.5255 18.895 25.3921 19.4367 25.1254 19.9586C24.8586 20.4805 24.4338 20.92 23.8508 21.2772L29.1922 37.3015H27.2883L26.0966 33.6348H17.914L16.7466 37.3015H14.8078ZM18.5414 31.8015H25.4586L22 21.3652L18.5414 31.8015ZM29.7 26.0333L28.4873 24.8206C29.3804 23.9485 30.0502 22.9414 30.4966 21.7993C30.9433 20.6568 31.1667 19.5015 31.1667 18.3333C31.1667 17.2569 30.9433 16.1416 30.4966 14.9875C30.0502 13.8334 29.3804 12.7863 28.4873 11.8461L29.7 10.6333C30.7505 11.7309 31.5367 12.9579 32.0586 14.3142C32.5805 15.6703 32.852 17.0217 32.8731 18.3686C32.8731 19.7391 32.6127 21.0847 32.0921 22.4056C31.5714 23.7266 30.774 24.9358 29.7 26.0333ZM33.9588 30.2922L32.7461 29.0794C34.2598 27.5422 35.3833 25.8482 36.1167 23.9974C36.85 22.1464 37.2167 20.2583 37.2167 18.3333C37.2167 16.4083 36.85 14.5203 36.1167 12.6693C35.3833 10.8185 34.2598 9.12451 32.7461 7.58726L33.9588 6.37451C35.6302 8.09021 36.8754 9.96937 37.6943 12.012C38.5135 14.0543 38.923 16.1615 38.923 18.3333C38.923 20.5052 38.5306 22.6123 37.7456 24.6547C36.9606 26.6973 35.6984 28.5765 33.9588 30.2922Z" fill="white"/>
</svg>
