<svg width="44" height="44" viewBox="0 0 44 44" fill="none" xmlns="http://www.w3.org/2000/svg">
<path d="M11.6416 19.9548L11.4441 18.3333C10.866 18.204 10.3225 18.0025 9.81378 17.7287C9.30472 17.4549 8.84685 17.1017 8.44015 16.669L6.87495 17.3533L5.8877 15.7877L7.25582 14.6597C7.05354 14.0743 6.9524 13.4654 6.9524 12.8333C6.9524 12.2011 7.05354 11.5922 7.25582 11.0068L5.8877 9.87884L6.87495 8.31317L8.44015 8.99746C8.84685 8.5648 9.30472 8.21157 9.81378 7.9378C10.3225 7.66402 10.866 7.4625 11.4441 7.33325L11.6416 5.71167H13.4749L13.6725 7.33325C14.2506 7.4625 14.794 7.66402 15.3028 7.9378C15.8118 8.21157 16.2697 8.5648 16.6764 8.99746L18.2416 8.31317L19.2289 9.87884L17.8607 11.0068C18.063 11.5922 18.1642 12.2011 18.1642 12.8333C18.1642 13.4654 18.063 14.0743 17.8607 14.6597L19.2289 15.7877L18.2416 17.3533L16.6764 16.669C16.2697 17.1017 15.8118 17.4549 15.3028 17.7287C14.794 18.0025 14.2506 18.204 13.6725 18.3333L13.4749 19.9548H11.6416ZM12.5583 16.7818C13.6607 16.7818 14.5945 16.3994 15.3596 15.6346C16.1244 14.8695 16.5068 13.9357 16.5068 12.8333C16.5068 11.7308 16.1244 10.797 15.3596 10.0319C14.5945 9.26711 13.6607 8.88471 12.5583 8.88471C11.4558 8.88471 10.5221 9.26711 9.75695 10.0319C8.99214 10.797 8.60974 11.7308 8.60974 12.8333C8.60974 13.9357 8.99214 14.8695 9.75695 15.6346C10.5221 16.3994 11.4558 16.7818 12.5583 16.7818ZM28.6142 38.5352L28.2828 36.5891C27.4578 36.4996 26.6885 36.2486 25.9751 35.8361C25.2616 35.4236 24.6558 34.8849 24.1578 34.22L22.3597 34.918L21.2382 33.0563L22.7617 31.8293C22.4182 31.0208 22.2465 30.1888 22.2465 29.3333C22.2465 28.4777 22.4182 27.6457 22.7617 26.8372L21.2382 25.6102L22.3597 23.7485L24.1578 24.4465C24.6558 23.7816 25.2616 23.2429 25.9751 22.8304C26.6885 22.4179 27.4578 22.1669 28.2828 22.0774L28.6142 20.1313H30.7857L31.1171 22.0774C31.9421 22.1669 32.7113 22.4179 33.4248 22.8304C34.1383 23.2429 34.7441 23.7816 35.2421 24.4465L37.0402 23.7485L38.1617 25.6102L36.6382 26.8372C36.9816 27.6457 37.1534 28.4777 37.1534 29.3333C37.1534 30.1888 36.9816 31.0208 36.6382 31.8293L38.1617 33.0563L37.0402 34.918L35.2421 34.22C34.7441 34.8849 34.1383 35.4236 33.4248 35.8361C32.7113 36.2486 31.9421 36.4996 31.1171 36.5891L30.7857 38.5352H28.6142ZM29.6999 34.8333C31.2277 34.8333 32.5263 34.2985 33.5958 33.2291C34.6652 32.1596 35.1999 30.861 35.1999 29.3333C35.1999 27.8055 34.6652 26.5069 33.5958 25.4374C32.5263 24.368 31.2277 23.8333 29.6999 23.8333C28.1722 23.8333 26.8736 24.368 25.8041 25.4374C24.7347 26.5069 24.1999 27.8055 24.1999 29.3333C24.1999 30.861 24.7347 32.1596 25.8041 33.2291C26.8736 34.2985 28.1722 34.8333 29.6999 34.8333Z" fill="white"/>
</svg>
