<svg width="40" height="40" viewBox="0 0 40 40" fill="none" xmlns="http://www.w3.org/2000/svg">
<g clip-path="url(#clip0_40_133)">
<path d="M20 40C31.0457 40 40 31.0457 40 20C40 8.9543 31.0457 0 20 0C8.9543 0 0 8.9543 0 20C0 31.0457 8.9543 40 20 40Z" fill="white"/>
<path d="M21.5467 17.2712C21.8756 16.9008 22.1452 16.5275 22.483 16.2104C23.52 15.2327 24.7467 14.7408 26.1808 14.7527C26.9689 14.7586 27.7452 14.8149 28.5037 15.0341C30.24 15.5349 31.2474 16.7319 31.7304 18.4267C32.0919 19.6978 32.1571 21.0045 32.16 22.3141C32.1659 25.0756 32.1511 27.8401 32.1571 30.6015C32.1571 30.8593 32.0859 30.9275 31.8311 30.9275C30.4089 30.9156 28.9837 30.9156 27.5615 30.9275C27.3096 30.9304 27.2563 30.8534 27.2563 30.6164C27.2652 27.9882 27.2652 25.3601 27.2563 22.7289C27.2533 22.0712 27.2119 21.4104 27.0282 20.7704C26.6874 19.5912 25.843 18.9897 24.6074 19.0549C22.9185 19.1438 22.0415 19.9793 21.8252 21.6949C21.7748 22.1038 21.7482 22.5156 21.7511 22.9275C21.7541 25.4845 21.7482 28.0415 21.7571 30.5986C21.7571 30.8534 21.6948 30.9275 21.4341 30.9275C20 30.9156 18.5659 30.9156 17.1319 30.9275C16.9008 30.9304 16.8356 30.8682 16.8356 30.6341C16.8415 25.5734 16.8415 20.5097 16.8356 15.4489C16.8356 15.1971 16.9185 15.1408 17.1556 15.1408C18.5156 15.1497 19.8785 15.1526 21.2385 15.1408C21.4904 15.1378 21.5526 15.2208 21.5496 15.4578C21.5378 16.0623 21.5467 16.6667 21.5467 17.2712Z" fill="black"/>
<path d="M13.7482 23.0549C13.7482 25.5586 13.7452 28.0623 13.7541 30.566C13.7541 30.8445 13.686 30.9275 13.3986 30.9245C11.9763 30.9097 10.5541 30.9126 9.12894 30.9215C8.90079 30.9245 8.83264 30.8652 8.83264 30.6312C8.83857 25.5615 8.83857 20.4919 8.83264 15.4193C8.83264 15.2089 8.88301 15.1349 9.10523 15.1349C10.5482 15.1437 11.9912 15.1467 13.4341 15.1319C13.7126 15.1289 13.7482 15.2356 13.7482 15.4756C13.7452 18.006 13.7482 20.5304 13.7482 23.0549Z" fill="black"/>
<path d="M14.1422 10.1158C14.1452 11.6891 12.8682 12.9691 11.2978 12.9691C9.74817 12.9691 8.46225 11.6891 8.45632 10.1395C8.45039 8.57502 9.73632 7.28613 11.3037 7.28613C12.8593 7.29206 14.1393 8.5691 14.1422 10.1158Z" fill="black"/>
</g>
<defs>
<clipPath id="clip0_40_133">
<rect width="40" height="40" fill="white"/>
</clipPath>
</defs>
</svg>
