<svg width="50" height="50" viewBox="0 0 50 50" fill="none" xmlns="http://www.w3.org/2000/svg">
<path d="M9.61562 39.5832C8.6566 39.5832 7.8559 39.262 7.21354 38.6196C6.57118 37.9773 6.25 37.1766 6.25 36.2175V13.7821C6.25 12.8231 6.57118 12.0224 7.21354 11.38C7.8559 10.7377 8.6566 10.4165 9.61562 10.4165H40.3844C41.3434 10.4165 42.1441 10.7377 42.7865 11.38C43.4288 12.0224 43.75 12.8231 43.75 13.7821V36.2175C43.75 37.1766 43.4288 37.9773 42.7865 38.6196C42.1441 39.262 41.3434 39.5832 40.3844 39.5832H9.61562ZM25 25.2405L8.33333 14.3425V36.2175C8.33333 36.5915 8.45347 36.8988 8.69375 37.1394C8.93437 37.3797 9.24167 37.4998 9.61562 37.4998H40.3844C40.7583 37.4998 41.0656 37.3797 41.3063 37.1394C41.5465 36.8988 41.6667 36.5915 41.6667 36.2175V14.3425L25 25.2405ZM25 22.9165L41.0255 12.4998H8.97448L25 22.9165ZM8.33333 14.3425V12.4998V36.2175C8.33333 36.5915 8.45347 36.8988 8.69375 37.1394C8.93437 37.3797 9.24167 37.4998 9.61562 37.4998H8.33333V14.3425Z" fill="#FFAA22"/>
</svg>
