<svg width="44" height="44" viewBox="0 0 44 44" fill="none" xmlns="http://www.w3.org/2000/svg">
<path d="M33.8534 38.4541C33.6557 38.4541 33.4734 38.4217 33.3066 38.3569C33.1398 38.2924 32.9764 38.1803 32.8166 38.0205L23.6784 28.9171C23.5183 28.7573 23.406 28.5939 23.3415 28.4271C23.2767 28.2603 23.2443 28.0782 23.2443 27.8808C23.2443 27.6834 23.2767 27.5011 23.3415 27.334C23.406 27.1671 23.5183 27.0038 23.6784 26.844L26.7277 23.7943C26.8875 23.6345 27.051 23.5223 27.2181 23.4579C27.3849 23.3931 27.567 23.3607 27.7644 23.3607C27.9618 23.3607 28.1439 23.3931 28.3108 23.4579C28.4776 23.5223 28.6409 23.6345 28.8007 23.7943L37.9394 32.933C38.0992 33.0928 38.2115 33.2561 38.2763 33.4229C38.3408 33.5898 38.373 33.7719 38.373 33.9693C38.373 34.167 38.3408 34.3492 38.2763 34.5161C38.2115 34.6829 38.0992 34.8462 37.9394 35.006L34.8897 38.0205C34.7299 38.1803 34.5666 38.2924 34.3997 38.3569C34.2329 38.4217 34.0508 38.4541 33.8534 38.4541ZM33.8534 36.5327L36.4164 33.9693L27.775 25.3283L25.212 27.8913L33.8534 36.5327ZM10.1007 38.4646C9.90333 38.4646 9.71954 38.4305 9.54935 38.3624C9.37885 38.2943 9.2137 38.1803 9.05389 38.0205L6.01468 35.0166C5.85488 34.8568 5.7409 34.6916 5.67276 34.5211C5.60463 34.3509 5.57056 34.167 5.57056 33.9693C5.57056 33.7719 5.60463 33.584 5.67276 33.4055C5.7409 33.2268 5.85488 33.0575 6.01468 32.8977L15.4495 23.4629H19.2747L20.6919 22.0457L12.9181 14.2715H10.3056L5.67643 9.64231L9.58601 5.73273L14.2152 10.3619V12.9744L21.9894 20.7482L27.5174 15.2202L24.1367 11.8391L26.2098 9.76606H22.0527L21.2983 9.04648L26.5022 3.84302L27.2213 4.56214V8.75406L29.2944 6.68102L36.5786 13.8943C37.0275 14.3199 37.3601 14.8083 37.5764 15.3596C37.7925 15.9105 37.9005 16.4939 37.9005 17.1099C37.9005 17.5612 37.8336 17.9996 37.6997 18.4249C37.5656 18.8502 37.3682 19.2522 37.1076 19.6308L33.3524 15.8756L30.7505 18.4776L28.7902 16.5173L20.537 24.771V28.6563L11.1375 38.0205C10.9777 38.1803 10.8143 38.2943 10.6475 38.3624C10.4807 38.4305 10.2984 38.4646 10.1007 38.4646ZM10.1007 36.4974L19.1267 27.4715V24.9085H16.5632L7.53772 33.934L10.1007 36.4974ZM10.1007 36.4974L7.53772 33.934L8.82472 35.2104L10.1007 36.4974Z" fill="white"/>
</svg>
