<svg width="42" height="42" viewBox="0 0 42 42" fill="none" xmlns="http://www.w3.org/2000/svg">
<path d="M21.0031 37.625C18.7036 37.625 16.5422 37.1887 14.5189 36.316C12.4956 35.4433 10.7357 34.259 9.23912 32.7631C7.74258 31.2671 6.55769 29.5079 5.68444 27.4855C4.81148 25.4631 4.375 23.3023 4.375 21.0031C4.375 18.7036 4.81133 16.5422 5.684 14.5189C6.55667 12.4956 7.74098 10.7357 9.23694 9.23912C10.7329 7.74258 12.4921 6.55769 14.5145 5.68444C16.5369 4.81148 18.6977 4.375 20.9969 4.375C23.2964 4.375 25.4578 4.81133 27.4811 5.684C29.5044 6.55667 31.2643 7.74098 32.7609 9.23694C34.2574 10.7329 35.4423 12.4921 36.3156 14.5145C37.1885 16.5369 37.625 18.6977 37.625 20.9969C37.625 23.2964 37.1887 25.4578 36.316 27.4811C35.4433 29.5044 34.259 31.2643 32.7631 32.7609C31.2671 34.2574 29.5079 35.4423 27.4855 36.3156C25.4631 37.1885 23.3023 37.625 21.0031 37.625ZM21 35C24.9083 35 28.2188 33.6437 30.9312 30.9312C33.6437 28.2188 35 24.9083 35 21C35 17.0917 33.6437 13.7812 30.9312 11.0687C28.2188 8.35625 24.9083 7 21 7C17.0917 7 13.7812 8.35625 11.0687 11.0687C8.35625 13.7812 7 17.0917 7 21C7 24.9083 8.35625 28.2188 11.0687 30.9312C13.7812 33.6437 17.0917 35 21 35ZM21.0039 30.625C18.3314 30.625 16.0584 29.6896 14.1851 27.8189C12.3117 25.9481 11.375 23.6765 11.375 21.0039C11.375 18.3314 12.3104 16.0584 14.1811 14.1851C16.0519 12.3117 18.3235 11.375 20.9961 11.375C23.6686 11.375 25.9416 12.3104 27.8149 14.1811C29.6883 16.0519 30.625 18.3235 30.625 20.9961C30.625 23.6686 29.6896 25.9416 27.8189 27.8149C25.9481 29.6883 23.6765 30.625 21.0039 30.625ZM21 28C22.925 28 24.5729 27.3146 25.9438 25.9438C27.3146 24.5729 28 22.925 28 21C28 19.075 27.3146 17.4271 25.9438 16.0562C24.5729 14.6854 22.925 14 21 14C19.075 14 17.4271 14.6854 16.0562 16.0562C14.6854 17.4271 14 19.075 14 21C14 22.925 14.6854 24.5729 16.0562 25.9438C17.4271 27.3146 19.075 28 21 28ZM21 23.625C20.2842 23.625 19.6678 23.3664 19.1507 22.8493C18.6336 22.3322 18.375 21.7157 18.375 21C18.375 20.2842 18.6336 19.6678 19.1507 19.1507C19.6678 18.6336 20.2842 18.375 21 18.375C21.7157 18.375 22.3322 18.6336 22.8493 19.1507C23.3664 19.6678 23.625 20.2842 23.625 21C23.625 21.7157 23.3664 22.3322 22.8493 22.8493C22.3322 23.3664 21.7157 23.625 21 23.625Z" fill="#F89520"/>
</svg>
