<svg width="35" height="34" viewBox="0 0 35 34" fill="none" xmlns="http://www.w3.org/2000/svg">
<path d="M17.4097 33.5455C13.3282 33.5455 9.92508 32.1939 7.20016 29.4907C4.47604 26.7883 3.11397 23.231 3.11397 18.8189H2.10494C1.57361 18.8189 1.13561 18.6475 0.790924 18.3048C0.445445 17.962 0.272705 17.5271 0.272705 17C0.272705 16.473 0.445445 16.038 0.790924 15.6953C1.13561 15.3534 1.57361 15.1824 2.10494 15.1824H3.11397C3.23549 12.788 3.74219 10.6123 4.63408 8.65522C5.52677 6.69734 6.975 4.83047 8.97878 3.05459V7.5455C8.97878 8.07259 9.15112 8.5075 9.49581 8.85023C9.84129 9.19295 10.2797 9.36431 10.811 9.36431C11.3423 9.36431 11.7807 9.19295 12.1262 8.85023C12.4717 8.5075 12.6444 8.07259 12.6444 7.5455V1.34568C13.2981 1.10931 14.0371 0.901706 14.8615 0.722857C15.6866 0.544009 16.536 0.45459 17.4097 0.45459C18.2833 0.45459 19.1323 0.544009 19.9567 0.722857C20.7811 0.901706 21.5205 1.10931 22.1749 1.34568V7.5455C22.1749 8.07259 22.3472 8.5075 22.6919 8.85023C23.0374 9.19295 23.4758 9.36431 24.0071 9.36431C24.5385 9.36431 24.9769 9.19295 25.3223 8.85023C25.667 8.5075 25.8394 8.07259 25.8394 7.5455V3.05459C27.9043 4.83047 29.3676 6.69734 30.2293 8.65522C31.091 10.6123 31.583 12.788 31.7054 15.1824H32.7132C33.2445 15.1824 33.6829 15.3534 34.0284 15.6953C34.3731 16.038 34.5454 16.473 34.5454 17C34.5454 17.5271 34.3731 17.962 34.0284 18.3048C33.6829 18.6475 33.2445 18.8189 32.7132 18.8189H31.7054C31.7054 23.231 30.3429 26.7883 27.618 29.4907C24.8931 32.1939 21.4903 33.5455 17.4097 33.5455ZM17.4097 28.8182C20.1521 28.8182 22.4259 27.9228 24.2311 26.132C26.0371 24.3411 26.9401 22.085 26.9401 19.3637H7.8792C7.8792 22.085 8.78182 24.3411 10.587 26.132C12.3923 27.9228 14.6665 28.8182 17.4097 28.8182Z" fill="white"/>
</svg>
